<?xml version="1.0" standalone="no"?>
<!DOCTYPE svg PUBLIC "-//W3C//DTD SVG 20010904//EN"
 "http://www.w3.org/TR/2001/REC-SVG-20010904/DTD/svg10.dtd">
<svg version="1.0" xmlns="http://www.w3.org/2000/svg"
 width="512.000000pt" height="512.000000pt" viewBox="0 0 512.000000 512.000000"
 preserveAspectRatio="xMidYMid meet">
<metadata>
Created by potrace 1.16, written by Peter Selinger 2001-2019
</metadata>
<g transform="translate(0.000000,512.000000) scale(0.100000,-0.100000)"
fill="#000000" stroke="none">
<path d="M360 2710 l0 -80 2210 0 2210 0 0 80 0 80 -2210 0 -2210 0 0 -80z"/>
<path d="M1370 2207 c0 -31 2 -33 36 -34 20 -1 40 -7 45 -15 5 -7 9 -169 9
-360 0 -381 1 -378 -61 -378 -26 0 -29 -3 -29 -30 l0 -30 125 0 125 0 0 30 c0
26 -4 30 -28 30 -15 0 -33 5 -40 12 -9 9 -12 105 -11 372 l0 361 137 -402 137
-403 51 0 52 0 135 403 135 402 1 -360 c1 -268 -2 -364 -11 -373 -7 -7 -25
-12 -40 -12 -24 0 -28 -4 -28 -30 l0 -30 135 0 135 0 0 30 c0 25 -4 30 -24 30
-59 0 -56 -20 -56 376 0 396 -3 374 55 378 21 1 25 6 25 34 l0 32 -124 0 -124
0 -122 -367 c-68 -203 -126 -372 -131 -377 -4 -5 -63 161 -131 368 l-123 376
-127 0 -128 0 0 -33z"/>
<path d="M2630 1960 c-30 -11 -60 -26 -67 -33 -6 -6 -15 -40 -19 -74 l-7 -63
42 0 c35 0 41 3 41 20 0 46 27 88 65 100 56 18 125 7 152 -24 23 -27 39 -86
30 -109 -3 -8 -45 -24 -94 -36 -202 -51 -273 -108 -273 -223 0 -107 66 -168
181 -168 72 0 97 10 147 55 l40 35 7 -27 c11 -45 34 -63 79 -63 58 0 89 19 97
58 7 37 8 36 -25 21 -20 -9 -29 -9 -41 1 -12 10 -15 42 -15 179 0 214 -10 275
-50 316 -17 18 -48 37 -69 44 -58 17 -159 13 -221 -9z m240 -327 c0 -38 -5
-85 -10 -105 -20 -72 -116 -121 -192 -99 -48 15 -68 44 -68 101 0 52 19 80 70
106 30 15 170 61 193 63 4 1 7 -29 7 -66z"/>
<path d="M3383 1969 c-18 -5 -51 -27 -74 -49 -23 -22 -44 -40 -46 -40 -1 0 -3
20 -3 45 0 42 -2 45 -22 41 -13 -3 -54 -8 -91 -11 -67 -7 -68 -7 -65 -33 3
-23 9 -28 43 -32 l40 -5 3 -354 c2 -253 -1 -358 -9 -367 -6 -8 -24 -14 -40
-14 -26 0 -29 -4 -29 -30 l0 -30 130 0 130 0 0 29 c0 27 -3 30 -37 33 l-38 3
-3 127 -3 128 48 -30 c169 -105 353 11 386 244 10 74 -4 186 -24 186 -6 0 -27
-11 -47 -25 l-36 -25 3 -77 c3 -97 -12 -160 -50 -207 -71 -85 -207 -67 -260
36 -31 59 -38 186 -15 256 30 89 115 145 194 127 28 -6 30 -4 39 34 9 32 8 41
-4 45 -21 9 -83 6 -120 -5z"/>
</g>
</svg>
